# xmcd
#
# Track frame offsets:
#	150
#	12879
#	40277
#	58117
#	82831
#	100922
#	118947
#	131174
#
# Disc length: 2098 seconds
#
# Revision: 0
# Processed by: cddbd v1.4PL0 Copyright (c) Steve Scherf et al.
# Submitted via: dBpowerAMP V4.0
#
DISCID=66083008
DTITLE=Mud Boys - Seven Faces EP
DYEAR=1999
DGENRE=Blues
TTITLE0=Rocket 88
TTITLE1=I Wish You Would
TTITLE2=Suggestion Blues
TTITLE3=Fine Young Girl
TTITLE4=Cut That Out
TTITLE5=Love And War
TTITLE6=Hoodoo Man Blues
TTITLE7=Seven Faces
EXTD=
EXTT0=
EXTT1=
EXTT2=
EXTT3=
EXTT4=
EXTT5=
EXTT6=
EXTT7=
PLAYORDER=
